# xmcd
#
# Track frame offsets:
#	150
#	16182
#	33688
#	44886
#	59622
#	72196
#	89045
#	102893
#	115522
#	131270
#	143591
#	161516
#	172375
#	185326
#	196349
#
# Disc length: 2758 seconds
#
# Revision: 0
# Processed by: cddbd v1.4PL0 Copyright (c) Steve Scherf et al.
# Submitted via: EasyCDDAExtractor 4.6.0.1
#
DISCID=d70ac40f
DTITLE=Mark Coonradt - If you don't like Country
DYEAR=1900
DGENRE=Country
TTITLE0=Blue Moon of Kentucky
TTITLE1=Gentle on my Mind
TTITLE2=Good old American Guest
TTITLE3=Wandren Star
TTITLE4=Della and the Dealer
TTITLE5=San Antonio Rose
TTITLE6=Natural High
TTITLE7=Games People play
TTITLE8=Bubbles in my Beer
TTITLE9=Happy Tracks
TTITLE10=Pferdehalfter
TTITLE11=Redneck National Anthym
TTITLE12=My own Kind of Hat
TTITLE13=Walking the floor over you
TTITLE14=Worken Man
EXTD=
EXTT0=
EXTT1=
EXTT2=
EXTT3=
EXTT4=
EXTT5=
EXTT6=
EXTT7=
EXTT8=
EXTT9=
EXTT10=
EXTT11=
EXTT12=
EXTT13=
EXTT14=
PLAYORDER=
